# xmcd
#
# Track frame offsets: 
#        150
#        11255
#        40296
#        52760
#        68996
#        82127
#        95288
#        109385
#        123420
#        140239
#        155475
#        172925
#        197673
#        216376
#
# Disc length: 3100 seconds
#
# Revision: 0
# Processed by: cddbd v1.5.2PL0 Copyright (c) Steve Scherf et al.
# Submitted via: ExactAudioCopy v0.95a4
#
DISCID=c40c1a0e
DTITLE=Black Smith Hopkins - Black Smith Hopkins
DYEAR=1997
DGENRE=Blues
TTITLE0=Black Smith Hopkins
TTITLE1=Madness On Tape
TTITLE2=Rich and Poor
TTITLE3=Burden Breaker
TTITLE4=Commit A Crime
TTITLE5=Die Time
TTITLE6=73 Movie
TTITLE7=Mad House Blues
TTITLE8=Im The Soul
TTITLE9=No Way To Live
TTITLE10=Blues Singer
TTITLE11=Dead Boogie
TTITLE12=Sneak Eye Blues
TTITLE13=Dead Man's Creek
EXTD=
EXTT0=
EXTT1=
EXTT2=
EXTT3=
EXTT4=
EXTT5=
EXTT6=
EXTT7=
EXTT8=
EXTT9=
EXTT10=
EXTT11=
EXTT12=
EXTT13=
PLAYORDER=
